<svg id="LOGO" xmlns="http://www.w3.org/2000/svg" viewBox="0 0 492.44 153.41"><defs><style>.cls-1{fill:#1d1d1b;}.cls-2{fill:#e30613;}.cls-3{fill:#fff;}</style></defs><title>ADLER Logo_Claim_SK_Slowakisch_4c</title><g id="CLAIM_SK" data-name="CLAIM SK"><path class="cls-1" d="M170,159.12a12.56,12.56,0,0,0-3.88-.63c-2.47,0-3.65,1-3.65,2.57,0,4.05,9.57,2.67,9.57,9.9,0,4-3.06,6.91-8.58,6.91a22.21,22.21,0,0,1-5.17-.59l.46-4.11a13.67,13.67,0,0,0,4.94,1c2.17,0,3.78-.82,3.78-2.76,0-4.21-9.48-2.66-9.48-9.9,0-3.88,3.06-6.55,8.39-6.55a21.38,21.38,0,0,1,4,.43Z" transform="translate(-17 -24.46)"/><path class="cls-1" d="M193.06,164.42h-3.82v13.09h-4.18V164.42H182.2v-3.26h2.86v-1c0-4.83,2.37-7,6.68-7a15.84,15.84,0,0,1,2.5.23L194,157a8.91,8.91,0,0,0-2.11-.3c-1.78,0-2.6,1-2.6,3.26v1.25h3.82Z" transform="translate(-17 -24.46)"/><path class="cls-1" d="M211,177.25a45.72,45.72,0,0,1-6.74.29,19.22,19.22,0,0,1,.16-2.79l0,0a5.54,5.54,0,0,1-5.23,3.13,4.41,4.41,0,0,1-4.68-4.67c0-3.89,3.72-5.69,9.45-5.69v-.7c0-1.87-.76-2.76-2.93-2.76a14.62,14.62,0,0,0-5,1.09l-.66-3.19a20.07,20.07,0,0,1,6.12-1.12c5.1,0,6.65,2.1,6.65,5.75v7.74c.79.13,1.91.26,2.86.32Zm-7.07-7c-4.25,0-5.4,1-5.4,2.47a1.87,1.87,0,0,0,2,1.9c2,0,3.42-2,3.42-3.88Z" transform="translate(-17 -24.46)"/><path class="cls-1" d="M223.36,165c-3.13-.66-4.64,1.31-4.64,5.85v6.68h-4.18V164.38c-.79-.13-1.91-.26-2.86-.33v-2.63a46.19,46.19,0,0,1,6.81-.29,21.44,21.44,0,0,1-.3,3.32h.07c.79-2.07,2.37-3.88,5.3-3.62Z" transform="translate(-17 -24.46)"/><path class="cls-1" d="M230.86,160.53a20.23,20.23,0,0,1-.26,3.2h0a5.22,5.22,0,0,1,4.93-2.9c3.92,0,6,2.83,6,7.67,0,5.52-3.22,9.34-8.85,9.34a21.7,21.7,0,0,1-6.08-.79V156.72c-.79-.13-1.91-.27-2.86-.33v-2.63a47.15,47.15,0,0,1,7.07-.3Zm0,13.66a7,7,0,0,0,2.17.29c2.4,0,4.11-1.51,4.11-5.56,0-3.06-.89-4.6-2.79-4.6-2.18,0-3.49,2.53-3.49,5.26Z" transform="translate(-17 -24.46)"/><path class="cls-1" d="M251.42,177.84c-4.67,0-7.69-2.53-7.69-8.13,0-5,3-8.88,8.32-8.88,4.67,0,7.7,2.53,7.7,8.13C259.75,174,256.75,177.84,251.42,177.84Zm.37-13.46c-2.27,0-3.72,1.68-3.72,4.94s1.35,4.93,3.65,4.93c2.14,0,3.68-1.54,3.68-4.9S254.06,164.38,251.79,164.38Z" transform="translate(-17 -24.46)"/><path class="cls-1" d="M281,177.25a46.07,46.07,0,0,1-6.77.29,20,20,0,0,1,.19-3h-.06a5.92,5.92,0,0,1-5.53,3.26c-3.72,0-4.9-2.34-4.9-5.2v-8.26c-.79-.13-1.88-.26-2.83-.33v-2.63a49.63,49.63,0,0,1,7-.29v10.49c0,1.68.46,2.7,2,2.7,2.14,0,3.81-2.4,3.81-5.27v-7.89h4.18v13.13c.79.13,1.91.26,2.86.32Z" transform="translate(-17 -24.46)"/><path class="cls-1" d="M300.21,177.51h-5l-5.63-16.35h4.54l2.64,7.89c.46,1.55.79,2.77,1.05,4.08h.07c.26-1.28.55-2.53,1-4l2.57-7.93h4.44Z" transform="translate(-17 -24.46)"/><path class="cls-1" d="M325.87,177.51l-5.06-8.09v8.09H316.6V156.72c-.79-.13-1.91-.27-2.87-.33v-2.63a47.34,47.34,0,0,1,7.08-.3V168l4.77-6.81h4.93l-5.62,7.27,6.25,9.08Z" transform="translate(-17 -24.46)"/><path class="cls-1" d="M344,165c-3.12-.66-4.64,1.31-4.64,5.85v6.68h-4.17V164.38c-.79-.13-1.91-.26-2.87-.33v-2.63a46.39,46.39,0,0,1,6.82-.29,21.44,21.44,0,0,1-.3,3.32h.06c.79-2.07,2.37-3.88,5.3-3.62Z" transform="translate(-17 -24.46)"/><path class="cls-1" d="M356.15,177.51h-5l-5.62-16.35h4.54l2.63,7.89c.46,1.55.79,2.77,1.05,4.08h.07c.26-1.28.56-2.53,1-4l2.57-7.93h4.44Z" transform="translate(-17 -24.46)"/><path class="cls-1" d="M366.07,177.51V164.38c-.79-.13-1.91-.26-2.86-.33v-2.63a48,48,0,0,1,7-.29v16.38Zm2.07-18.79a2.57,2.57,0,0,1-2.6-2.53,2.62,2.62,0,1,1,2.6,2.53Z" transform="translate(-17 -24.46)"/><path class="cls-1" d="M376.46,177.87a2.68,2.68,0,1,1,2.7-2.7A2.71,2.71,0,0,1,376.46,177.87Z" transform="translate(-17 -24.46)"/></g><path class="cls-2" d="M128.5,24.49,80.39,137.18c30.3,0,44.79-28.13,47.23-30.22l-12.31,27.8H473.62l20.9-65.33,14.93-45Z" transform="translate(-17 -24.46)"/><path class="cls-2" d="M122.4,24.49H88.78L41.39,135.81c33,.8,47.56-33.28,53.66-47.74Z" transform="translate(-17 -24.46)"/><path class="cls-2" d="M63.52,70.48l19.68-46h-31L17,106.37S47.85,107.84,63.52,70.48Z" transform="translate(-17 -24.46)"/><polygon class="cls-3" points="290.42 26.85 267.94 26.85 267.94 82.6 310.27 82.6 310.27 67.97 290.42 67.97 290.42 26.85"/><polygon class="cls-3" points="337.63 60.65 362.19 60.65 362.19 48.28 337.8 48.28 337.8 40.62 364.46 40.62 364.46 26.85 316.37 26.85 316.37 82.6 364.63 82.6 364.63 68.49 337.63 68.49 337.63 60.65"/><path class="cls-3" d="M155.68,45s-26.31,58-28.05,62h22.82l5.05-10.28,28.23-.07,4.18,10.35H212.3L186,45Zm5.75,37.81,8.71-21.43,8,21.4Z" transform="translate(-17 -24.46)"/><path class="cls-3" d="M253.93,51.31H216.3v55.75h32.76c8.71,0,17.07-1,22.47-8.53,6.45-9.41,7.32-24.22,2.44-34.67A21.39,21.39,0,0,0,253.93,51.31Zm-3.66,39c-3.64,2.77-8,2.09-12.36,2.09V65.08c5.57-.35,12.19-.35,14.8,5.22C255.38,76.23,254.88,86.61,250.27,90.34Z" transform="translate(-17 -24.46)"/><path class="cls-3" d="M440.34,86.68a20.7,20.7,0,0,0,8.89-3.48c6.21-3.73,11.22-31.78-11.21-31.78l-44.72-.11v55.75H416V87.72l15.68,19.34h26.13ZM420.63,76.9c-2.84-.05-4.9-.14-4.9-.14V64.34s2.06-.09,4.9-.14c11.63-.21,12.26,2.76,12.26,6.35S432.26,77.12,420.63,76.9Z" transform="translate(-17 -24.46)"/></svg>