<svg xmlns="http://www.w3.org/2000/svg" viewBox="0 0 56.693 56.693"><g fill-rule="evenodd"><path d="M28.346 0c15.655 0 28.346 12.692 28.346 28.346S44.001 56.693 28.346 56.693 0 44.001 0 28.346 12.692 0 28.346 0zm-9.785 30.5l9.495-26.111c-13.1.156-23.67 10.821-23.67 23.957 0 7.27 3.238 13.782 8.35 18.176l3.586-9.86h6.051l-1.811 4.98h15.571l-1.811-4.98h6.051l3.586 9.86c5.112-4.394 8.35-10.906 8.35-18.176 0-13.136-10.57-23.801-23.67-23.957L38.133 30.5h-6.051l-3.734-10.268L24.614 30.5h-6.051-.002zm24.403 16.831H13.727c4.046 3.12 9.115 4.976 14.618 4.976s10.573-1.857 14.618-4.976h.001z" fill="#95180e"/><path d="M35.228 34.897v-2.738h.95l1.978 1.821v-1.821h.901v2.738h-.981l-1.93-1.788v1.788h-.918zm-13.101 0h-1.06l-.411-.632h-1.93l-.396.632h-1.028l1.883-2.738h1.013l1.93 2.738h-.001zm-1.788-1.092l-.664-1.013-.649 1.013h1.313zm2.709 1.092v-2.279h-1.423v-.46h3.814v.46h-1.423v2.279h-.966-.002zm4.387 0l-1.724-2.738h1.045l1.219 2.025 1.187-2.025h1.028l-1.724 2.738h-1.028-.003zm4.782 0v-1.155L30.46 32.16h1.14l1.123 1.077 1.123-1.077h1.107l-1.772 1.582v1.155h-.965.001z" fill="#141515"/></g><path d="M25.628 39.294l.327-.05a.24.24 0 0 0 .084.144c.043.034.102.049.179.049.084 0 .147-.015.189-.046.029-.021.043-.05.043-.087 0-.024-.008-.046-.023-.061s-.052-.031-.108-.043c-.263-.058-.429-.111-.499-.159-.098-.067-.147-.159-.147-.278a.34.34 0 0 1 .127-.269c.084-.073.214-.108.391-.108.168 0 .293.027.376.082s.139.136.17.244l-.305.057c-.012-.049-.038-.086-.075-.111a.27.27 0 0 0-.157-.038c-.086 0-.148.012-.185.035a.08.08 0 0 0-.037.066c0 .023.011.043.032.06.029.021.131.052.305.092s.295.087.363.145.102.139.102.243c0 .113-.047.209-.142.29s-.234.122-.418.122c-.168 0-.301-.034-.399-.101s-.162-.159-.191-.275l-.002-.003z" fill="#141515"/><path d="M27.059 39.641v-.325h.325v.325h-.325zm.971 0h-.325v-1.229h.301v.174c.052-.082.098-.136.141-.162a.26.26 0 0 1 .141-.038.41.41 0 0 1 .214.061l-.102.283c-.055-.035-.105-.053-.153-.053s-.084.012-.116.038-.057.07-.075.136-.027.203-.027.412v.379l.001-.001zm.478 0v-.325h.325v.325h-.325z" fill="#141515"/><path d="M29.093 39.012c0-.108.026-.212.079-.315s.128-.179.226-.232.206-.079.327-.079c.186 0 .338.061.457.182s.179.273.179.458-.06.341-.18.463a.61.61 0 0 1-.454.183.72.72 0 0 1-.322-.076c-.102-.05-.18-.125-.232-.225s-.079-.218-.079-.36v.001zm.335.016c0 .122.029.215.087.281s.13.098.214.098.156-.032.212-.098.086-.159.086-.283-.029-.214-.086-.278-.128-.098-.212-.098a.27.27 0 0 0-.214.098c-.058.064-.087.159-.087.281v-.001z" fill="#141515"/><path d="M30.614 39.641v-.325h.325v.325h-.325z" fill="#141515"/></svg>