<?xml version="1.0" encoding="UTF-8"?>
<svg width="293px" height="48px" viewBox="0 0 293 48" version="1.1" xmlns="http://www.w3.org/2000/svg" xmlns:xlink="http://www.w3.org/1999/xlink">
    <!-- Generator: Sketch 60.1 (88133) - https://sketch.com -->
    <title>Group</title>
    <desc>Created with Sketch.</desc>
    <g id="Page-2" stroke="none" stroke-width="1" fill="none" fill-rule="evenodd">
        <g id="MP-Loga-2020-(1)" transform="translate(-150.000000, -63.000000)" fill="#111111">
            <g id="Group" transform="translate(150.798200, 63.234208)">
                <path d="M284.5753,10.6610923 C282.9763,10.2370923 281.6833,8.94409227 281.2603,7.34509227 C280.2953,3.70509227 283.5363,0.461092274 287.1763,1.42509227 C288.7753,1.84809227 290.0683,3.14109227 290.4943,4.74009227 C291.4623,8.38009227 288.2173,11.6270923 284.5753,10.6610923 M284.4953,0.154092274 C282.2763,0.649092274 280.4843,2.43909227 279.9883,4.65809227 C279.0043,9.06009227 282.8613,12.9170923 287.2633,11.9320923 C289.4823,11.4350923 291.2713,9.64509227 291.7663,7.42609227 C292.7493,3.02709227 288.8953,-0.826907726 284.4953,0.154092274" id="Fill-21"></path>
                <path d="M285.9415,6.00289227 L284.8705,6.00289227 L284.8705,4.44289227 L285.9415,4.44289227 C286.4995,4.44289227 286.9445,4.74289227 286.9445,5.21389227 C286.9445,5.69389227 286.4995,6.00289227 285.9415,6.00289227 M288.3835,5.21389227 C288.3835,3.95489227 287.4155,3.16689227 285.9765,3.16689227 L283.4215,3.16689227 L283.4215,8.99389227 L284.8705,8.99389227 L284.8705,7.30489227 L285.7695,7.30489227 L287.0215,8.99389227 L288.7695,8.99389227 L287.2705,7.02289227 C287.9635,6.67089227 288.3835,6.02889227 288.3835,5.21389227" id="Fill-23"></path>
                <path d="M61.444,3.32709227 C61.54,3.30209227 61.522,3.16609227 61.423,3.16609227 L57.233,3.16609227 L40.923,3.16609227 C40.809,3.16609227 40.706,3.23409227 40.662,3.33909227 L28.588,29.3970923 L16.767,3.34109227 C16.723,3.23509227 16.62,3.16609227 16.506,3.16609227 L0.283,3.16609227 C0.127,3.16609227 -1.42108547e-14,3.29309227 -1.42108547e-14,3.45009227 L-1.42108547e-14,46.8780923 C-1.42108547e-14,47.0350923 0.127,47.1610923 0.283,47.1610923 L10.216,47.1610923 C10.373,47.1610923 10.5,47.0350923 10.5,46.8780923 L10.5,16.0980923 C10.5,15.9110923 10.756,15.8610923 10.827,16.0330923 L24.549,46.9860923 C24.592,47.0920923 24.696,47.1610923 24.811,47.1610923 L32.282,47.1610923 C32.397,47.1610923 32.5,47.0930923 32.544,46.9870923 L46.406,16.0240923 C46.478,15.8520923 46.733,15.9040923 46.733,16.0890923 L46.733,46.8780923 C46.733,47.0350923 46.86,47.1610923 47.017,47.1610923 L57.233,47.1610923 L61.423,47.1610923 C61.522,47.1610923 61.54,47.0250923 61.444,47.0000923 C59.087,46.3880923 57.233,44.1160923 57.233,41.7030923 L57.233,8.62509227 C57.233,6.21209227 59.087,3.94009227 61.444,3.32709227" id="Fill-25"></path>
                <path d="M93.9894,3.17919227 L93.9894,3.16619227 L67.7334,3.16619227 L63.5434,3.16619227 C63.4444,3.16619227 63.4264,3.30219227 63.5224,3.32719227 C65.8794,3.94019227 67.7334,6.21219227 67.7334,8.62519227 L67.7334,13.3831923 C67.7334,13.5391923 67.8604,13.6661923 68.0164,13.6661923 L89.6894,13.6661923 C91.9864,13.6661923 93.9894,15.7401923 93.9894,17.9661923 L93.9894,19.8661923 C93.9894,22.0921923 91.9864,24.1661923 89.6894,24.1661923 L68.0164,24.1661923 C67.8604,24.1661923 67.7334,24.2931923 67.7334,24.4501923 L67.7334,34.6661923 L67.7334,41.7031923 C67.7334,44.1161923 65.8794,46.3881923 63.5224,47.0001923 C63.4264,47.0251923 63.4444,47.1611923 63.5434,47.1611923 L67.7334,47.1611923 L67.7334,47.1581923 L77.9494,47.1581923 C78.1064,47.1581923 78.2334,47.0321923 78.2334,46.8751923 L78.2334,34.6661923 L93.9894,34.6661923 L93.9894,34.6541923 C99.7814,34.6541923 104.4764,29.9581923 104.4764,24.1661923 L104.4894,24.1661923 L104.4894,13.6661923 L104.4764,13.6661923 C104.4764,7.87419227 99.7814,3.17919227 93.9894,3.17919227" id="Fill-27"></path>
                <polygon id="Fill-29" points="141.9952 9.66989227 135.0432 9.66989227 128.1832 16.4868923 125.9852 16.4868923 125.9852 9.66989227 120.7592 9.66989227 120.7592 28.0268923 125.9852 28.0268923 125.9852 21.0858923 128.1832 21.0858923 135.9412 28.0268923 143.2152 28.0268923 132.7292 18.7308923"></polygon>
                <path d="M160.8634,20.1488923 C160.8634,21.4968923 160.5594,22.4198923 159.9534,22.9168923 C159.3474,23.4138923 158.1194,23.6628923 156.2714,23.6628923 L154.0464,23.6628923 C152.2034,23.6628923 150.9734,23.4158923 150.3564,22.9228923 C149.7384,22.4288923 149.4294,21.5218923 149.4294,20.1978923 L149.4294,17.6468923 C149.4294,16.2408923 149.7224,15.2878923 150.3094,14.7858923 C150.8974,14.2848923 152.1344,14.0338923 154.0224,14.0338923 L156.2714,14.0338923 C158.1194,14.0338923 159.3474,14.2828923 159.9534,14.7798923 C160.5594,15.2768923 160.8634,16.1998923 160.8634,17.5468923 L160.8634,20.1488923 Z M164.3274,10.7298923 C163.7594,10.2698923 162.9944,9.94089227 162.0314,9.74389227 C161.0684,9.54689227 159.6124,9.44789227 157.6644,9.44789227 L152.6064,9.44789227 C150.6654,9.44789227 149.2174,9.54689227 148.2614,9.74389227 C147.3064,9.94089227 146.5414,10.2698923 145.9654,10.7298923 C145.3054,11.2558923 144.8294,11.9668923 144.5384,12.8628923 C144.2474,13.7588923 144.1004,14.9748923 144.1004,16.5118923 L144.1004,21.5178923 C144.1004,22.9228923 144.2474,24.0498923 144.5384,24.9008923 C144.8294,25.7518923 145.3054,26.4408923 145.9654,26.9658923 C146.5484,27.4348923 147.3044,27.7658923 148.2334,27.9588923 C149.1614,28.1518923 150.6274,28.2488923 152.6304,28.2488923 L157.6644,28.2488923 C159.6434,28.2488923 161.1054,28.1518923 162.0484,27.9588923 C162.9924,27.7658923 163.7524,27.4348923 164.3274,26.9658923 C164.9654,26.4408923 165.4304,25.7358923 165.7264,24.8518923 C166.0214,23.9688923 166.1704,22.8198923 166.1704,21.4058923 L166.1704,16.2898923 C166.1704,14.8928923 166.0214,13.7458923 165.7264,12.8508923 C165.4304,11.9548923 164.9654,11.2478923 164.3274,10.7298923 L164.3274,10.7298923 Z" id="Fill-31"></path>
                <polygon id="Fill-33" points="186.8282 9.66989227 179.9922 22.8488923 173.5572 9.66989227 167.8492 9.66989227 176.9062 28.0268923 183.2492 28.0268923 192.3882 9.66989227"></polygon>
                <path d="M199.5353,20.5560923 L202.7923,14.0580923 L206.1173,20.5560923 L199.5353,20.5560923 Z M199.5353,9.67009227 L190.1773,28.0270923 L195.8113,27.9930923 L197.5563,24.9690923 L207.9943,24.9690923 L209.6513,28.0270923 L215.3943,28.0270923 L206.2103,9.67009227 L199.5353,9.67009227 Z" id="Fill-35"></path>
                <polygon id="Fill-37" points="235.5929 23.1322923 225.3849 9.67029227 217.6389 9.67029227 217.6389 28.0272923 222.8639 28.0272923 222.8639 14.6742923 233.1419 28.0272923 240.8079 28.0272923 240.8079 9.67029227 235.5929 9.67029227"></polygon>
                <polygon id="Fill-39" points="245.8018 28.0267923 251.0378 28.0267923 251.0378 9.66979227 245.8018 9.66979227"></polygon>
                <path d="M262.8702,20.5556923 L266.1282,14.0586923 L269.4532,20.5556923 L262.8702,20.5556923 Z M262.8702,9.66969227 L253.5132,28.0266923 L259.2222,28.0266923 L260.8912,24.9696923 L271.3292,24.9696923 L272.9872,28.0266923 L278.7302,28.0266923 L269.5462,9.66969227 L262.8702,9.66969227 Z" id="Fill-41"></path>
            </g>
        </g>
    </g>
</svg>